<?xml version="1.0" encoding="UTF-8"?>
<svg id="Ebene_1" data-name="Ebene 1" xmlns="http://www.w3.org/2000/svg" viewBox="0 0 871.23 127.49">
  <defs>
    <style>
      .cls-1 {
        fill: #c41333;
      }

      .cls-1, .cls-2, .cls-3 {
        stroke-width: 0px;
      }

      .cls-2 {
        fill: #323394;
      }

      .cls-3 {
        fill: #141412;
      }
    </style>
  </defs>
  <path class="cls-3" d="M42.35,103.88h0c-8.07,0-15.31-1.71-21.73-5.12h0c-6.41-3.41-11.45-8.15-15.12-14.24h0c-3.67-6.09-5.5-12.98-5.5-20.68h0c0-7.7,1.83-14.59,5.5-20.68h0c3.67-6.09,8.71-10.83,15.12-14.24h0c6.42-3.41,13.66-5.12,21.73-5.12h0c7.04,0,13.38,1.25,19.03,3.74h0c5.65,2.49,10.34,6.09,14.08,10.78h0l-13.86,12.54h0c-4.99-6.01-11.04-9.02-18.15-9.02h0c-4.18,0-7.9.92-11.16,2.75h0c-3.27,1.83-5.8,4.42-7.59,7.75h0c-1.8,3.34-2.7,7.17-2.7,11.5h0c0,4.33.9,8.16,2.7,11.5h0c1.79,3.33,4.32,5.92,7.59,7.75h0c3.26,1.83,6.98,2.75,11.16,2.75h0c7.11,0,13.16-3.01,18.15-9.02h0l13.86,12.54h0c-3.74,4.69-8.43,8.29-14.08,10.78h0c-5.65,2.49-11.99,3.74-19.03,3.74h0ZM106.7,85.51h40.26v16.83h-61.82V25.34h60.39v16.83h-38.83v12.98h34.21v16.28h-34.21v14.08ZM215.6,25.34h21.56l-33,77h-21.45l-32.89-77h23.54l20.9,50.16,21.34-50.16ZM243.32,102.34V25.34h21.78v77h-21.78Z"/>
  <g>
    <path class="cls-2" d="M292.19,48.21c-.18-.64-.27-1.3-.33-1.85l12.6,12.58c-6.81-2.46-11.05-2.13-12.27-10.73"/>
    <path class="cls-1" d="M372.98,90.79c-8.83,2.55-17.68,4.16-26.02,4.7l31.23,31.22,11.1-41.37c-4.91,1.9-10.33,3.71-16.3,5.44"/>
    <path class="cls-1" d="M400.77,39.24c-11.38,7.4-25.31,13.78-38.27,17.49-17.81,5.16-35.96,6.78-49.82,4.38l-21.16-21.18,117.51-31.57-8.25,30.88"/>
    <path class="cls-2" d="M418.02,61.43c-8.9,10.98-23.16,18.73-46.19,25.43-23.49,6.7-46.94,6.52-59.74-.58-4.5-2.52-7.31-5.6-8.39-9.29l-6.74-16.76c.27.13.54.27.77.5,13.8,7.58,39.67,7.63,65.95.13,21.02-6.07,43.06-18.35,54.35-30.13v30.71"/>
    <path class="cls-2" d="M378.18,12.46l-82.08,21.88c8.45-12.01,28.28-23.85,51.22-30.49,6.45-1.87,20.85-4.19,30.86-3.81v12.42"/>
  </g>
  <path class="cls-3" d="M490.25,24.74h9.07l-10.89,33.6h-10.18l-6.43-20.45-6.72,20.45h-10.18l-10.89-33.6h9.79l6.77,21.46,7.1-21.46h8.74l6.77,21.65,7.05-21.65ZM503.45,58.34V24.74h9.51v33.6h-9.51ZM529.13,51h17.57v7.34h-26.98V24.74h26.36v7.34h-16.95v5.67h14.93v7.1h-14.93v6.15ZM563.79,59.01h0c-2.72,0-5.36-.34-7.92-1.01h0c-2.56-.67-4.64-1.56-6.24-2.68h0l3.12-7.01h0c1.5.99,3.24,1.79,5.23,2.4h0c1.99.61,3.94.91,5.86.91h0c3.65,0,5.47-.91,5.47-2.74h0c0-.96-.52-1.67-1.56-2.13h0c-1.04-.47-2.71-.96-5.02-1.47h0c-2.53-.54-4.64-1.12-6.33-1.75h0c-1.7-.62-3.16-1.62-4.37-3h0c-1.22-1.37-1.83-3.23-1.83-5.57h0c0-2.05.56-3.89,1.68-5.54h0c1.12-1.65,2.79-2.95,5.02-3.91h0c2.23-.96,4.95-1.44,8.18-1.44h0c2.21,0,4.39.25,6.53.74h0c2.15.5,4.04,1.23,5.67,2.19h0l-2.93,7.05h0c-3.2-1.73-6.3-2.59-9.31-2.59h0c-1.89,0-3.27.28-4.13.84h0c-.87.56-1.3,1.29-1.3,2.18h0c0,.9.51,1.57,1.54,2.02h0c1.02.45,2.67.91,4.94,1.39h0c2.56.55,4.68,1.13,6.36,1.75h0c1.68.63,3.14,1.62,4.37,2.98h0c1.23,1.36,1.85,3.21,1.85,5.54h0c0,2.02-.56,3.85-1.68,5.48h0c-1.12,1.63-2.8,2.93-5.04,3.91h0c-2.24.97-4.96,1.46-8.16,1.46h0ZM592.44,51h17.57v7.34h-26.97V24.74h26.35v7.34h-16.95v5.67h14.93v7.1h-14.93v6.15ZM637.95,24.74h9.31v33.6h-7.82l-14.84-17.9v17.9h-9.31V24.74h7.83l14.83,17.9v-17.9ZM653.98,58.34V24.74h15.89c3.68,0,6.94.69,9.79,2.06h0c2.85,1.38,5.05,3.33,6.62,5.86h0c1.57,2.53,2.36,5.49,2.36,8.88h0c0,3.39-.79,6.35-2.36,8.88h0c-1.57,2.53-3.77,4.48-6.62,5.86h0c-2.85,1.37-6.11,2.06-9.79,2.06h-15.89ZM663.48,50.76h6c2.88,0,5.19-.82,6.94-2.45h0c1.75-1.63,2.62-3.89,2.62-6.77h0c0-2.88-.87-5.14-2.62-6.77h0c-1.75-1.63-4.06-2.45-6.94-2.45h-6v18.44ZM718.78,58.34l-2.64-6.53h-14.21l-2.64,6.53h-9.69l14.83-33.6h9.36l14.88,33.6h-9.89ZM704.72,44.8h8.64l-4.32-10.75-4.32,10.75ZM754.01,24.74h9.31v33.6h-7.82l-14.83-17.9v17.9h-9.31V24.74h7.82l14.83,17.9v-17.9ZM792.56,50.04v-9.22h8.4v13.92h0c-1.92,1.37-4.13,2.43-6.63,3.17h0c-2.49.73-4.99,1.1-7.49,1.1h0c-3.52,0-6.69-.74-9.5-2.23h0c-2.81-1.49-5.02-3.56-6.62-6.22h0c-1.6-2.65-2.4-5.66-2.4-9.02h0c0-3.36.8-6.37,2.4-9.02h0c1.6-2.66,3.82-4.73,6.67-6.22h0c2.85-1.49,6.06-2.23,9.65-2.23h0c3.13,0,5.95.53,8.44,1.58h0c2.5,1.06,4.58,2.58,6.24,4.56h0l-6.04,5.47h0c-2.27-2.49-4.99-3.74-8.16-3.74h0c-2.88,0-5.2.87-6.96,2.62h0c-1.76,1.74-2.64,4.07-2.64,6.98h0c0,1.85.4,3.51,1.2,4.97h0c.8,1.45,1.92,2.59,3.36,3.41h0c1.44.81,3.09,1.22,4.94,1.22h0c1.83,0,3.54-.37,5.14-1.1h0ZM816.41,51h17.57v7.34h-26.98V24.74h26.36v7.34h-16.95v5.67h14.93v7.1h-14.93v6.15ZM861.92,24.74h9.31v33.6h-7.83l-14.83-17.9v17.9h-9.31V24.74h7.82l14.84,17.9v-17.9Z"/>
  <path class="cls-3" d="M456.03,95h17.57v7.34h-26.98v-33.6h26.35v7.34h-16.94v5.67h14.93v7.1h-14.93v6.15ZM478.88,102.34v-33.6h9.5v26.06h16.03v7.54h-25.53ZM519.96,103.01h0c-2.72,0-5.36-.34-7.92-1.01h0c-2.56-.67-4.64-1.56-6.24-2.68h0l3.12-7.01h0c1.51.99,3.25,1.79,5.24,2.4h0c1.98.61,3.93.91,5.85.91h0c3.65,0,5.47-.91,5.47-2.74h0c0-.96-.52-1.67-1.56-2.13h0c-1.04-.47-2.71-.96-5.01-1.47h0c-2.53-.54-4.64-1.12-6.34-1.75h0c-1.69-.62-3.15-1.62-4.37-3h0c-1.21-1.37-1.82-3.23-1.82-5.57h0c0-2.05.56-3.89,1.68-5.54h0c1.12-1.65,2.79-2.95,5.02-3.91h0c2.22-.96,4.95-1.44,8.18-1.44h0c2.21,0,4.38.25,6.53.74h0c2.14.5,4.03,1.23,5.66,2.19h0l-2.93,7.05h0c-3.2-1.73-6.3-2.59-9.31-2.59h0c-1.89,0-3.26.28-4.13.84h0c-.86.56-1.29,1.29-1.29,2.18h0c0,.9.51,1.57,1.53,2.02h0c1.03.45,2.68.91,4.95,1.39h0c2.56.55,4.68,1.13,6.36,1.75h0c1.68.63,3.14,1.62,4.37,2.98h0c1.23,1.36,1.84,3.21,1.84,5.54h0c0,2.02-.56,3.85-1.68,5.48h0c-1.12,1.63-2.8,2.93-5.04,3.91h0c-2.24.97-4.96,1.46-8.16,1.46h0ZM564.36,102.34l-2.64-6.53h-14.2l-2.64,6.53h-9.7l14.83-33.6h9.36l14.88,33.6h-9.89ZM550.3,88.8h8.64l-4.32-10.75-4.32,10.75ZM592.44,103.01h0c-4.99,0-8.87-1.36-11.64-4.08h0c-2.77-2.72-4.15-6.58-4.15-11.57h0v-18.62h9.51v18.34h0c0,5.37,2.13,8.06,6.38,8.06h0c4.23,0,6.34-2.69,6.34-8.06h0v-18.34h9.36v18.62h0c0,4.99-1.39,8.85-4.16,11.57h0c-2.77,2.72-6.65,4.08-11.64,4.08h0ZM651.1,68.74h9.5v33.6h-9.5v-13.1h-12.96v13.1h-9.5v-33.6h9.5v12.62h12.96v-12.62ZM676.73,95h17.57v7.34h-26.98v-33.6h26.36v7.34h-16.95v5.67h14.93v7.1h-14.93v6.15ZM722.09,94.04v-9.22h8.4v13.92h0c-1.92,1.37-4.13,2.43-6.62,3.17h0c-2.5.73-5,1.1-7.49,1.1h0c-3.52,0-6.69-.74-9.5-2.23h0c-2.82-1.49-5.03-3.56-6.63-6.22h0c-1.6-2.65-2.4-5.66-2.4-9.02h0c0-3.36.8-6.37,2.4-9.02h0c1.6-2.66,3.82-4.73,6.67-6.22h0c2.85-1.49,6.07-2.23,9.65-2.23h0c3.14,0,5.96.53,8.45,1.58h0c2.49,1.06,4.57,2.58,6.24,4.56h0l-6.05,5.47h0c-2.27-2.49-4.99-3.74-8.16-3.74h0c-2.88,0-5.2.87-6.96,2.62h0c-1.76,1.74-2.64,4.07-2.64,6.98h0c0,1.85.4,3.51,1.2,4.97h0c.8,1.45,1.92,2.59,3.36,3.41h0c1.44.81,3.09,1.22,4.95,1.22h0c1.82,0,3.53-.37,5.13-1.1h0ZM736.54,102.34v-33.6h9.5v33.6h-9.5Z"/>
</svg>